<?xml version="1.0" encoding="UTF-8"?>
<svg id="Layer_1" data-name="Layer 1" xmlns="http://www.w3.org/2000/svg" viewBox="0 0 63 66.52">
  <defs>
    <style>
      .cls-1 {
        fill: #fff;
      }

      .cls-2 {
        fill: #390091;
      }

      .cls-3 {
        fill: #a179dc;
      }

      .cls-4 {
        fill: #280068;
      }
    </style>
  </defs>
  <path class="cls-3" d="M42.62,28.11c0-.42-.09-.79-.27-1.11-.18-.31-.45-.58-.8-.78-2.96-1.71-5.93-3.41-8.89-5.12-.8-.46-1.57-.44-2.36,.02-1.18,.7-7.08,4.08-8.84,5.09-.72,.42-1.08,1.06-1.08,1.89,0,3.43,0,6.87,0,10.3,0,.41,.09,.78,.26,1.09,.18,.32,.45,.59,.82,.81,1.76,1.02,7.66,4.4,8.84,5.09,.79,.47,1.57,.48,2.36,.02,2.96-1.71,5.92-3.41,8.89-5.12,.37-.21,.64-.48,.82-.81,.17-.31,.26-.68,.26-1.09,0,0,0-6.87,0-10.3"/>
  <path class="cls-4" d="M31.53,33.23l-10.9,6.27c.18,.32,.45,.59,.82,.81,1.76,1.02,7.66,4.4,8.84,5.09,.79,.47,1.57,.48,2.36,.02,2.96-1.71,5.92-3.41,8.89-5.12,.37-.21,.64-.48,.82-.81l-10.83-6.27"/>
  <path class="cls-2" d="M42.62,28.11c0-.42-.09-.79-.27-1.11l-10.81,6.23,10.83,6.27c.17-.31,.26-.68,.26-1.09,0,0,0-6.87,0-10.3"/>
  <path class="cls-1" d="M37.95,30.88v1.17h1.17v-1.17h.59v1.17h1.17v.59h-1.17v1.17h1.17v.59h-1.17v1.17h-.59v-1.17h-1.17v1.17h-.59v-1.17h-1.17v-.59h1.17v-1.17h-1.17v-.59h1.17v-1.17h.59Zm1.17,1.76h-1.17v1.17h1.17v-1.17Z"/>
  <path class="cls-1" d="M31.56,24.99c3.06,0,5.73,1.66,7.16,4.13v-.02s-3.61,2.07-3.61,2.07c-.71-1.2-2.01-2.01-3.5-2.03h-.05c-2.27,0-4.12,1.84-4.12,4.12,0,.74,.2,1.44,.54,2.04,.71,1.24,2.04,2.07,3.57,2.07s2.88-.85,3.59-2.1l-.02,.03,3.59,2.08c-1.41,2.45-4.05,4.1-7.07,4.14h-.09c-3.07,0-5.75-1.67-7.17-4.15-.7-1.21-1.1-2.62-1.1-4.11,0-4.57,3.7-8.27,8.27-8.27Z"/>
</svg>