<?xml version="1.0" encoding="UTF-8"?>
<svg id="Layer_1" data-name="Layer 1" xmlns="http://www.w3.org/2000/svg" viewBox="0 0 63 66.52">
  <defs>
    <style>
      .cls-1 {
        fill: #659ad2;
      }

      .cls-2 {
        fill: #fff;
      }

      .cls-3 {
        fill: #004482;
      }

      .cls-4 {
        fill: #00599c;
      }
    </style>
  </defs>
  <path class="cls-4" d="M42.33,39.51c.17-.3,.28-.64,.28-.95v-10.6c0-.31-.11-.65-.28-.95l-10.83,6.25,10.83,6.25Z"/>
  <path class="cls-3" d="M32.46,45.53l9.18-5.3c.26-.15,.51-.42,.68-.72l-10.83-6.25-10.83,6.25c.17,.3,.41,.57,.68,.72l9.18,5.3c.53,.31,1.39,.31,1.92,0Z"/>
  <path class="cls-1" d="M42.33,27.01c-.17-.3-.41-.57-.68-.72l-9.18-5.3c-.53-.31-1.39-.31-1.92,0l-9.18,5.3c-.53,.31-.96,1.06-.96,1.67v10.6c0,.31,.11,.65,.28,.95l10.83-6.25,10.83-6.25Z"/>
  <path class="cls-2" d="M31.5,40.67c-4.08,0-7.41-3.32-7.41-7.41s3.32-7.41,7.41-7.41c2.63,0,5.09,1.42,6.41,3.7l-3.2,1.85c-.66-1.14-1.89-1.85-3.21-1.85-2.04,0-3.7,1.66-3.7,3.7s1.66,3.7,3.7,3.7c1.32,0,2.55-.71,3.21-1.85l3.2,1.85c-1.32,2.28-3.78,3.7-6.41,3.7Z"/>
  <polygon class="cls-2" points="38.91 32.85 38.08 32.85 38.08 32.03 37.26 32.03 37.26 32.85 36.44 32.85 36.44 33.67 37.26 33.67 37.26 34.5 38.08 34.5 38.08 33.67 38.91 33.67 38.91 32.85"/>
  <polygon class="cls-2" points="41.99 32.85 41.17 32.85 41.17 32.03 40.35 32.03 40.35 32.85 39.52 32.85 39.52 33.67 40.35 33.67 40.35 34.5 41.17 34.5 41.17 33.67 41.99 33.67 41.99 32.85"/>
</svg>