<?xml version="1.0" encoding="UTF-8"?>
<svg id="Layer_1" data-name="Layer 1" xmlns="http://www.w3.org/2000/svg" viewBox="0 0 63 66.52">
  <defs>
    <style>
      .cls-1 {
        fill: #659ad2;
      }

      .cls-2 {
        fill: #fff;
      }

      .cls-3 {
        fill: #004482;
      }

      .cls-4 {
        fill: #00599c;
      }
    </style>
  </defs>
  <path id="path2" class="cls-3" d="M30.85,20.93c.4-.23,.9-.23,1.31,0,2,1.12,8.01,4.49,10,5.62,.4,.23,.65,.65,.65,1.1v11.23c0,.45-.25,.87-.65,1.1-2,1.12-8.01,4.49-10,5.62-.4,.23-.9,.23-1.31,0-2-1.12-8.01-4.49-10-5.62-.4-.23-.65-.65-.65-1.1v-11.23c0-.45,.25-.87,.65-1.1,2-1.12,8.01-4.49,10-5.62h0Z"/>
  <path id="path4" class="cls-1" d="M20.37,39.45c-.16-.21-.18-.41-.18-.68v-11.17c0-.45,.25-.87,.65-1.09,1.99-1.11,7.98-4.47,9.97-5.58,.4-.23,.95-.22,1.35,0,1.99,1.11,7.96,4.44,9.95,5.55,.16,.09,.28,.2,.39,.34l-22.13,12.62Z"/>
  <path class="cls-2" d="M31.5,24.93c-4.6,0-8.33,3.73-8.33,8.33s3.73,8.33,8.33,8.33,8.33-3.73,8.33-8.33-3.73-8.33-8.33-8.33Zm0,12.5c-2.3,0-4.17-1.87-4.17-4.17s1.87-4.17,4.17-4.17,4.17,1.87,4.17,4.17-1.87,4.17-4.17,4.17Z"/>
  <path id="path8" class="cls-4" d="M42.5,26.84c.31,.29,.3,.72,.3,1.06,0,2.26-.02,8.68,0,10.94,0,.24-.08,.48-.19,.67l-11.36-6.25,11.25-6.43Z"/>
</svg>