<?xml version="1.0" encoding="UTF-8"?>
<svg id="Layer_1" data-name="Layer 1" xmlns="http://www.w3.org/2000/svg" viewBox="0 0 63 66.52">
  <defs>
    <style>
      .cls-1 {
        fill: #a3a3a3;
      }
    </style>
  </defs>
  <circle class="cls-1" cx="31.5" cy="33.26" r="12.5"/>
  <path d="M40.5,38.21c-.65,.17-1.06,0-1.42-.54l-2.58-3.58-.37-.49-3.02,4.08c-.34,.49-.71,.7-1.35,.53l3.86-5.19-3.6-4.69c.62-.12,1.05-.06,1.43,.5l2.68,3.62,2.7-3.6c.35-.49,.72-.68,1.34-.5l-1.39,1.85-1.89,2.46c-.22,.28-.19,.47,.01,.75l3.61,4.79Zm-18-5.27l.32-1.55c.86-3.08,4.39-4.36,6.82-2.45,1.42,1.12,1.77,2.7,1.7,4.47h-8.01c-.12,3.19,2.18,5.11,5.1,4.13,1.03-.34,1.63-1.15,1.93-2.15,.15-.5,.41-.58,.88-.44-.24,1.26-.79,2.31-1.94,2.97-1.72,.98-4.18,.67-5.48-.7-.77-.79-1.09-1.8-1.23-2.87-.02-.18-.07-.35-.1-.52,0-.29,0-.58,0-.87h0Zm.84-.21h7.24c-.05-2.31-1.48-3.94-3.45-3.96-2.15-.02-3.7,1.58-3.79,3.96Z"/>
</svg>