<?xml version="1.0" encoding="UTF-8"?>
<svg id="Layer_1" data-name="Layer 1" xmlns="http://www.w3.org/2000/svg" xmlns:xlink="http://www.w3.org/1999/xlink" viewBox="0 0 63 66.52">
  <defs>
    <linearGradient id="linear-gradient" x1="-3.49" y1="70.1" x2="-3.29" y2="69.96" gradientTransform="translate(353 9208.54) scale(95 -131)" gradientUnits="userSpaceOnUse">
      <stop offset="0" stop-color="#fff" stop-opacity=".1"/>
      <stop offset=".14" stop-color="#fff" stop-opacity=".08"/>
      <stop offset=".61" stop-color="#fff" stop-opacity=".02"/>
      <stop offset="1" stop-color="#fff" stop-opacity="0"/>
    </linearGradient>
  </defs>
  <path d="M22.41,40.93l3.08-19.69c.04-.24,.23-.43,.47-.47s.48,.08,.6,.29l3.18,5.94,1.27-2.42c.1-.19,.29-.3,.5-.3s.4,.12,.5,.3l8.59,16.35H22.41Z" style="fill: #ffa000;"/>
  <path d="M33.04,33.26l-3.31-6.27-7.32,13.94,10.63-7.67Z" style="fill: #f57c00;"/>
  <path d="M40.6,40.93l-2.36-14.58c-.04-.21-.19-.38-.39-.45s-.42-.01-.57,.14l-14.87,14.89,8.23,4.61c.52,.29,1.15,.29,1.66,0l8.3-4.61h0Z" style="fill: #ffca28;"/>
  <path d="M38.24,26.35c-.04-.21-.19-.38-.39-.45s-.42-.01-.57,.14l-2.95,2.96-2.32-4.42c-.1-.19-.29-.3-.5-.3s-.4,.12-.5,.3l-1.27,2.42-3.18-5.94c-.12-.22-.36-.33-.6-.29s-.43,.23-.47,.47l-3.08,19.69h0s.08,.05,.08,.05l14.78-14.8c.15-.15,.37-.21,.58-.14s.35,.24,.39,.45l2.34,14.45h.02s-2.36-14.6-2.36-14.6h0Zm-15.8,14.56l3.05-19.52c.04-.24,.22-.43,.47-.47s.48,.08,.6,.29l3.18,5.94,1.27-2.42c.1-.19,.29-.3,.5-.3s.4,.12,.5,.3l2.27,4.32-11.84,11.86h0Z" style="fill: rgba(255, 255, 255, .2);"/>
  <path d="M32.3,45.41c-.52,.29-1.15,.29-1.66,0l-8.21-4.6-.02,.13,8.23,4.61c.52,.29,1.15,.29,1.66,0l8.3-4.61-.02-.13-8.28,4.6h0Z" style="fill: #a52714; isolation: isolate; opacity: .2;"/>
  <path id="b" d="M38.22,26.35c-.04-.21-.18-.38-.39-.45s-.42-.01-.57,.14l-2.94,2.96-2.31-4.41c-.1-.19-.29-.3-.5-.3s-.4,.12-.5,.3l-1.26,2.41-3.17-5.93c-.12-.22-.35-.33-.59-.29s-.43,.23-.46,.47l-3.06,19.68,8.2,4.61c.51,.29,1.14,.29,1.66,0l8.27-4.61-2.35-14.58h0Z" style="fill: url(#linear-gradient);"/>
</svg>