<?xml version="1.0" encoding="UTF-8"?>
<svg id="Layer_1" data-name="Layer 1" xmlns="http://www.w3.org/2000/svg" xmlns:xlink="http://www.w3.org/1999/xlink" viewBox="0 0 63 66.52">
  <defs>
    <clipPath id="clippath">
      <path d="M30.91,20.92l-9.8,5.66c-.37,.21-.59,.6-.59,1.02v11.32c0,.42,.23,.81,.59,1.02l9.8,5.66c.37,.21,.82,.21,1.18,0l9.8-5.66c.37-.21,.59-.6,.59-1.02v-11.32c0-.42-.23-.81-.59-1.02l-9.8-5.66c-.18-.11-.39-.16-.59-.16s-.41,.05-.59,.16" style="fill: none;"/>
    </clipPath>
    <linearGradient id="linear-gradient" x1="-3.42" y1="68.38" x2="-3.14" y2="68.38" gradientTransform="translate(-7215.2 -3097.88) rotate(116.11) scale(115.31 -115.31)" gradientUnits="userSpaceOnUse">
      <stop offset=".3" stop-color="#3e863d"/>
      <stop offset=".5" stop-color="#55934f"/>
      <stop offset=".8" stop-color="#5aad45"/>
    </linearGradient>
    <clipPath id="clippath-1">
      <path d="M20.76,39.64c.09,.12,.21,.23,.35,.31l8.41,4.85,1.4,.8c.21,.12,.45,.17,.68,.15,.08,0,.16-.02,.23-.04l10.33-18.92c-.08-.09-.17-.16-.28-.22l-6.42-3.7-3.39-1.95c-.1-.06-.2-.1-.31-.12l-11.01,18.84Z" style="fill: none;"/>
    </clipPath>
    <linearGradient id="linear-gradient-2" x1="-3.96" y1="71.42" x2="-3.78" y2="71.42" gradientTransform="translate(8097.19 9797.62) rotate(-36.46) scale(177.06 -177.06)" gradientUnits="userSpaceOnUse">
      <stop offset=".57" stop-color="#3e863d"/>
      <stop offset=".72" stop-color="#619857"/>
      <stop offset="1" stop-color="#76ac64"/>
    </linearGradient>
    <clipPath id="clippath-2">
      <path d="M31.38,20.77c-.16,.02-.33,.07-.47,.15l-9.77,5.64,10.54,19.19c.15-.02,.29-.07,.42-.15l9.8-5.66c.3-.18,.51-.47,.57-.81l-10.74-18.35c-.08-.02-.16-.02-.24-.02-.03,0-.07,0-.1,0" style="fill: none;"/>
    </clipPath>
    <linearGradient id="linear-gradient-3" x1="-4.49" y1="71.18" x2="-4.32" y2="71.18" gradientTransform="translate(603.85 9278.68) scale(129.89 -129.89)" gradientUnits="userSpaceOnUse">
      <stop offset=".16" stop-color="#6bbf47"/>
      <stop offset=".38" stop-color="#79b461"/>
      <stop offset=".47" stop-color="#75ac64"/>
      <stop offset=".7" stop-color="#659e5a"/>
      <stop offset=".9" stop-color="#3e863d"/>
    </linearGradient>
  </defs>
  <g style="clip-path: url(#clippath);">
    <path d="M52.38,25.62L24.77,12.08l-14.16,28.88,27.61,13.53,14.16-28.88Z" style="fill: url(#linear-gradient);"/>
  </g>
  <g style="clip-path: url(#clippath-1);">
    <path d="M8.82,29.62l19.5,26.39,25.78-19.05L34.61,10.57,8.82,29.62Z" style="fill: url(#linear-gradient-2);"/>
  </g>
  <g style="clip-path: url(#clippath-2);">
    <path d="M21.14,20.76v24.99h21.32V20.76H21.14Z" style="fill: url(#linear-gradient-3);"/>
  </g>
</svg>