<?xml version="1.0" encoding="UTF-8"?>
<svg id="Layer_1" data-name="Layer 1" xmlns="http://www.w3.org/2000/svg" viewBox="0 0 63 66.52">
  <path d="M40.05,38.7c-.65,0-.91-.39-.91-.39-.04-.17-.09-2.75-.11-5.31-.02-2.67,0-5.31,.13-5.34,.76-1.41,3.15-4.25,3.15-4.25-4.47,.89-6.9,3.82-6.9,3.82-.72-.56-2.19-.48-2.19-.48,.69,.37,1.37,1.48,1.37,2.39v8.98s-1.5,1.32-2.65,1.32c-.69,0-1.11-.37-1.34-.67-.15-.22-.22-.39-.22-.39v-11.09c-.15,.11-.35,.2-.54,.2-.24,0-.5-.13-.67-.48-.13-.28-.22-.67-.22-1.28,0-2.04,2.32-3.41,2.32-3.41-2.93,.78-5.66,2.3-9.28,6.46-3.62,4.17-2.93,7.59-2.93,7.59,0,0,.98-2.39,3.38-4.88,1.15-1.17,2-1.56,2.58-1.58,.65,0,.95,.48,.95,.91v8.44c0,.82-.54,1.02-1.04,1-.41,0-.8-.15-.8-.15,2.47,3.58,8.37,4.1,8.37,4.1l2.6-2.78,.07,.04,2.39,2.02c4.34-2.58,6.44-7.38,6.44-7.38-1.97,2.1-3.21,2.58-3.95,2.58"/>
</svg>