<?xml version="1.0" encoding="UTF-8"?>
<svg id="Layer_1" data-name="Layer 1" xmlns="http://www.w3.org/2000/svg" viewBox="0 0 63 66.52">
  <defs>
    <style>
      .cls-1 {
        fill: #264de4;
      }

      .cls-2 {
        fill: #fff;
      }

      .cls-3 {
        fill: #2965f1;
      }
    </style>
  </defs>
  <g id="g3013">
    <polygon id="polygon2989" class="cls-1" points="42.53 20.76 40.52 43.26 31.49 45.76 22.48 43.26 20.47 20.76 42.53 20.76"/>
    <polygon id="polygon2991" class="cls-3" points="38.8 41.83 40.52 22.6 31.5 22.6 31.5 43.85 38.8 41.83"/>
    <polygon class="cls-2" points="31.5 25.36 31.49 25.36 24.58 25.36 24.83 28.12 31.49 28.12 31.5 28.12 35.38 28.12 35.13 30.95 31.5 30.95 31.49 30.95 25.07 30.95 25.32 33.71 31.49 33.71 31.5 33.71 34.89 33.71 34.57 37.29 31.49 38.12 31.49 38.12 31.49 38.12 28.41 37.29 28.22 35.09 26.72 35.09 25.44 35.09 25.83 39.42 31.49 40.99 31.5 40.99 31.5 40.98 37.15 39.42 37.19 38.95 37.84 31.69 37.91 30.95 38.41 25.36 31.5 25.36"/>
  </g>
</svg>