<?xml version="1.0" encoding="UTF-8"?>
<svg id="Layer_1" data-name="Layer 1" xmlns="http://www.w3.org/2000/svg" viewBox="0 0 63 66.52">
  <defs>
    <style>
      .cls-1 {
        fill: #5382a1;
      }

      .cls-2 {
        fill: #f8981d;
      }
    </style>
  </defs>
  <g>
    <path class="cls-1" d="M29.22,34.02s-.66,.38,.47,.51c1.36,.16,2.05,.13,3.55-.15,0,0,.39,.25,.94,.46-3.36,1.44-7.6-.08-4.96-.82"/>
    <path class="cls-1" d="M28.81,32.15s-.73,.54,.39,.66c1.45,.15,2.6,.16,4.58-.22,0,0,.27,.28,.71,.43-4.06,1.19-8.58,.09-5.67-.87"/>
    <path class="cls-2" d="M32.27,28.96c.83,.95-.22,1.81-.22,1.81,0,0,2.1-1.08,1.14-2.44-.9-1.27-1.59-1.9,2.15-4.06,0,0-5.87,1.47-3.07,4.7"/>
    <path class="cls-1" d="M36.71,35.41s.48,.4-.53,.71c-1.94,.59-8.06,.76-9.77,.02-.61-.27,.54-.64,.9-.71,.38-.08,.59-.07,.59-.07-.68-.48-4.4,.94-1.89,1.35,6.84,1.11,12.48-.5,10.7-1.3"/>
    <path class="cls-1" d="M29.54,30.2s-3.12,.74-1.1,1.01c.85,.11,2.54,.09,4.12-.04,1.29-.11,2.58-.34,2.58-.34,0,0-.45,.19-.78,.42-3.16,.83-9.28,.45-7.52-.41,1.49-.72,2.7-.64,2.7-.64"/>
    <path class="cls-1" d="M35.13,33.33c3.22-1.67,1.73-3.28,.69-3.06-.25,.05-.37,.1-.37,.1,0,0,.09-.15,.27-.21,2.05-.72,3.63,2.13-.66,3.26,0,0,.05-.04,.06-.08"/>
    <path class="cls-2" d="M33.19,20.76s1.78,1.78-1.69,4.52c-2.78,2.2-.63,3.45,0,4.88-1.63-1.47-2.82-2.76-2.02-3.96,1.17-1.76,4.43-2.62,3.71-5.45"/>
    <path class="cls-1" d="M29.85,37.86c3.09,.2,7.83-.11,7.94-1.57,0,0-.22,.55-2.55,.99-2.64,.5-5.89,.44-7.81,.12,0,0,.39,.33,2.42,.46"/>
  </g>
  <path class="cls-1" d="M37.65,40.48h-.09v-.05h.25v.05h-.09v.26h-.07v-.26Zm.51,.01h0l-.09,.25h-.04l-.09-.25h0v.25h-.06v-.32h.09l.09,.22,.09-.22h.09v.32h-.06v-.25h0Zm-8.81,2.95c-.29,.25-.6,.39-.88,.39-.39,0-.61-.24-.61-.62,0-.41,.23-.71,1.14-.71h.34v.93m.8,.91v-2.81c0-.72-.41-1.19-1.4-1.19-.58,0-1.08,.14-1.49,.32l.12,.5c.32-.12,.74-.23,1.15-.23,.57,0,.81,.23,.81,.7v.35h-.28c-1.38,0-2,.54-2,1.34,0,.69,.41,1.09,1.18,1.09,.5,0,.87-.21,1.21-.51l.06,.43h.63Zm2.68,0h-1l-1.21-3.93h.88l.75,2.41,.17,.73c.38-1.05,.65-2.11,.78-3.14h.85c-.23,1.29-.64,2.71-1.21,3.93m3.85-.91c-.29,.25-.6,.39-.88,.39-.39,0-.61-.24-.61-.62,0-.41,.23-.71,1.14-.71h.34v.93m.8,.91v-2.81c0-.72-.41-1.19-1.4-1.19-.58,0-1.08,.14-1.49,.32l.12,.5c.32-.12,.74-.23,1.15-.23,.57,0,.81,.23,.81,.7v.35h-.28c-1.38,0-2,.54-2,1.34,0,.69,.41,1.09,1.18,1.09,.5,0,.87-.21,1.21-.51l.06,.43h.63Zm-11.3,.67c-.23,.33-.6,.6-1,.75l-.4-.47c.31-.16,.57-.41,.7-.65,.11-.21,.15-.48,.15-1.14v-4.48h.85v4.42c0,.87-.07,1.22-.3,1.57"/>
</svg>