<?xml version="1.0" encoding="UTF-8"?>
<svg id="Layer_1" data-name="Layer 1" xmlns="http://www.w3.org/2000/svg" viewBox="0 0 63 66.52">
  <defs>
    <style>
      .cls-1 {
        fill: #f5d776;
      }

      .cls-2 {
        fill: #fff;
      }

      .cls-3 {
        fill: #dcc576;
      }

      .cls-4 {
        fill: #87de71;
      }

      .cls-5 {
        fill: #959d64;
      }

      .cls-6 {
        fill: #fbfdfc;
      }

      .cls-7 {
        fill: #90e59a;
      }

      .cls-8 {
        fill: #a9f37e;
      }

      .cls-9 {
        fill: #75d66f;
      }

      .cls-10 {
        fill: #8fe772;
      }

      .cls-11 {
        fill: #e1cb86;
      }

      .cls-12 {
        fill: #6cb960;
      }

      .cls-13 {
        fill: #97eb74;
      }

      .cls-14 {
        fill: none;
      }

      .cls-15 {
        fill: #5cce74;
      }

      .cls-16 {
        fill: #ddc377;
      }

      .cls-17 {
        fill: #77c66c;
      }

      .cls-18 {
        fill: #231f20;
      }

      .cls-19 {
        fill: #84cb71;
      }

      .cls-20 {
        fill: #d07b84;
      }

      .cls-21 {
        fill: #fefefe;
      }
    </style>
  </defs>
  <path d="M23.22,27.82v-4.72c0-1.14,.79-1.9,1.91-1.9h11.32c.37,0,.69,.11,.95,.38l2.86,2.92c.26,.27,.37,.63,.37,1v9.02h.45v-9.24c0-.4-.15-.77-.43-1.05l-3.02-3.03c-.28-.28-.66-.43-1.05-.43h-11.65c-1.18,0-2.14,.96-2.14,2.14v5.12l.42-.2Zm-.42,9.52v6.28c0,1.18,.96,2.14,2.14,2.14h2.72v-.44h-2.53c-1.12,0-1.91-.76-1.91-1.9v-5.89l-.42-.2Z"/>
  <path d="M39.59,24.92h-2.64v-2.76c0-.2,0-.37-.2-.37s-.2,.17-.2,.37v2.79c0,.2,.16,.37,.37,.37h2.67c.2,0,.37,0,.37-.2s-.17-.2-.37-.2Z"/>
  <path class="cls-18" d="M29.82,38.07c-.66,0-.8,.28-.8,.51v2.91c0,.23,.14,.51,.8,.51s.8-.28,.8-.51v-2.91c0-.23-.14-.51-.8-.51Zm-.38,.66c0-.23,.11-.33,.38-.33s.38,.1,.38,.33v2.63c0,.23-.11,.33-.38,.33s-.38-.1-.38-.33v-2.63Z"/>
  <path class="cls-18" d="M31.85,35.25h-.42v2.35h-.28v.33h.28v4.55h.42v-4.55h.66v-.33h-.66v-2.35Z"/>
  <path class="cls-18" d="M33.49,38.07c-.66,0-.8,.28-.8,.51v2.91c0,.23,.14,.51,.8,.51s.8-.28,.8-.51v-.47h-.42v.33c0,.23-.11,.33-.38,.33s-.38-.1-.38-.33v-.8c.1,.03,.23,.04,.38,.04,.66,0,.8-.28,.8-.51v-1.5c0-.24-.13-.52-.79-.52h0Zm-.38,.66c0-.23,.11-.33,.38-.33s.38,.1,.38,.33v1.22c0,.23-.11,.33-.38,.33s-.38-.1-.38-.33v-1.22Z"/>
  <path class="cls-18" d="M35.73,38.07c-.66,0-.8,.28-.8,.51v5.21h.42v-1.82c.1,.03,.23,.04,.38,.04,.66,0,.8-.28,.8-.51v-2.91c0-.23-.14-.51-.8-.51Zm-.37,.66c0-.23,.11-.33,.38-.33s.38,.1,.38,.33v2.63c0,.23-.11,.33-.38,.33s-.38-.1-.38-.33v-2.63Z"/>
  <path class="cls-18" d="M37.97,38.07c-.66,0-.8,.28-.8,.51v.47h.42v-.33c0-.23,.11-.33,.38-.33s.38,.1,.38,.33v.8c-.1-.03-.23-.04-.38-.04-.66,0-.8,.28-.8,.51v1.5c0,.23,.14,.51,.8,.51s.8-.28,.8-.51v-2.91c0-.23-.14-.51-.8-.51h0Zm-.38,2.06c0-.23,.11-.33,.38-.33s.38,.1,.38,.33v1.22c0,.23-.11,.33-.38,.33s-.38-.1-.38-.33v-1.22Z"/>
  <path class="cls-18" d="M40.63,38.11c-.1-.03-.23-.04-.38-.04-.66,0-.8,.28-.8,.51v2.91c0,.23,.14,.51,.8,.51s.8-.28,.8-.51v-6.24h-.42v2.86h0Zm-.75,.61c0-.23,.11-.33,.38-.33s.38,.1,.38,.33v2.63c0,.23-.11,.33-.38,.33s-.38-.1-.38-.33v-2.63Z"/>
  <path class="cls-18" d="M42.13,38.07h-.42v.94h-.47v.33h.47v.94h.42v-.94h.47v-.33h-.47v-.94Z"/>
  <path class="cls-18" d="M43.68,39v-.94h-.42v.94h-.47v.33h.47v.94h.42v-.94h.47v-.33h-.47Z"/>
  <path class="cls-18" d="M28.04,35.25c-.66,0-.8,.28-.8,.51v8.84h.42v-8.69c0-.23,.11-.33,.38-.33s.38,.1,.38,.33v6.1h.42v-6.24c0-.23-.14-.51-.8-.51h0Z"/>
  <path class="cls-7" d="M23.04,28.35c.4-.4,.99-.51,1.51-.68,.6-.03,1.21,.15,1.76,.4,.24,.1,.22,.38,.28,.59-.17,.04-.34,.07-.51,.11,.08-.12,.15-.23,.22-.35,0-.11-.14-.16-.2-.24l-.27,.19-.19-.16c-.17,.02-.35,.05-.5-.04-.27-.12-.55-.21-.85-.18-.13,.06-.24,.16-.35,.25,0-.05,0-.14,0-.19-.06,.07-.12,.14-.18,.22-.41,.04-.6,.47-.51,.83-.09,.07-.18,.14-.26,.2,.1-.19,.18-.39,.07-.59-.3,.09-.33,.42-.47,.66-.14,.26-.39,.46-.5,.74,0,.15,.01,.3,.03,.45-.11-.03-.23-.06-.34-.1,.29-.78,.63-1.58,1.27-2.13h0Z"/>
  <path class="cls-15" d="M23.93,28.26c.11-.09,.21-.2,.35-.25,.3-.03,.58,.06,.85,.18-.04,.17-.1,.33-.17,.48-.23-.12-.46-.25-.67-.39l.13,.26c-.05,.07-.1,.13-.15,.2-.1-.12-.19-.25-.28-.38-.03,.19-.17,.32-.36,.22,.04-.1,.09-.2,.13-.29,.06-.08,.12-.15,.18-.22,0,.04,0,.14,0,.19h0Z"/>
  <path class="cls-9" d="M25.12,28.18c.16,.09,.33,.07,.5,.04l.19,.16,.27-.19c.06,.08,.2,.12,.2,.24-.07,.12-.14,.24-.22,.35-.04,0-.13,.03-.17,.04,.09,.1,.17,.21,.26,.31-.36,.02-.62-.23-.9-.41-.25,.04-.43,.31-.7,.34-.13-.06-.25-.13-.37-.21-.04,.14-.07,.28-.15,.4-.12,.08-.27,.08-.41,.12,0,.06,.01,.13,.02,.19-.15-.14-.33-.28-.54-.18,.15,.16-.08,.22-.18,.29-.2,.11-.43,.26-.46,.52-.06,.15,0,.38-.16,.46-.2,.05-.4,.02-.59,.01,.01-.05,.04-.14,.05-.19,.11,.03,.23,.06,.34,.1-.02-.15-.04-.3-.03-.45,.11-.28,.36-.48,.5-.74,.14-.24,.16-.57,.47-.66,.11,.2,.03,.4-.07,.59,.09-.07,.17-.14,.26-.2-.09-.37,.1-.79,.51-.83-.04,.1-.09,.2-.13,.29,.19,.1,.33-.03,.36-.22,.09,.13,.19,.25,.28,.38,.05-.07,.1-.13,.15-.2l-.13-.26c.22,.14,.44,.26,.67,.39,.06-.14,.12-.3,.16-.48m-1.9,3.03c.1,.02,.2,.04,.31,.06-.12,.32-.29,.64-.27,1,.06,.23,.25,.4,.4,.59-.21,.06-.5,.01-.64,.21-.09,.38,.26,.6,.49,.83-.32-.12-.69-.29-.8-.65,.16-.2,.35-.35,.56-.5-.3-.45-.42-1.1-.04-1.53m3.3,.8c.08,.07,.16,.13,.23,.2,0,.13,.02,.26,.02,.39-.13-.17-.25-.36-.26-.59m2.03,.1c.08-.11,.22-.1,.3,0,.16,.21,.25,.46,.36,.7,.14,0,.28,.02,.41,.03-.27,.1-.53,.25-.57,.57-.11-.16,.05-.31,.12-.46-.15-.32-.52-.48-.63-.83m-3.89,.2l.08-.04c.01,.21,.11,.46-.04,.64-.16-.01-.31-.02-.46-.05,.2-.13,.36-.3,.42-.55m2.11,.29c.11,.15,.24,.29,.39,.41,.15-.18,.49-.46,.63-.12-.23,.11-.51,.19-.59,.47,0,0,0,.02,0,.03,.03,.24,.12,.48,.2,.71-.52-.34-.21-1.07-.61-1.5m2.85,.07c.22,.02,.46,.08,.63,.24-.21-.01-.43,0-.63-.08v-.16Zm-.56,1.23c.27,.12,.54,.25,.82,.34,.16-.07,.39-.42,.52-.16-.21,.19-.5,.39-.8,.32-.23-.11-.38-.33-.55-.5m-7.56,.04c.05,0,.15,.02,.21,.03,.23,.53,.24,1.14,.55,1.64,.18,.3,.33,.6,.5,.9,.18,.31,.48,.52,.76,.73,.6,.44,1.59,.38,2.01-.28,.27-.58-.07-1.2-.3-1.73-.4-.63-1.44-.15-1.41,.53-.12-.68,.75-1.26,1.33-.91,.41,.27,.53,.77,.69,1.2,.19,.52-.09,1.13-.58,1.36-.38,.24-.85,.15-1.27,.15-.58-.03-.96-.5-1.33-.88-.37-.45-.6-.98-.89-1.49-.15-.4-.24-.84-.27-1.28m3.09,1.74c.07,.08,.12,.16,.19,.24-.16,.21-.42,.2-.66,.17-.1-.1-.2-.21-.29-.31,.23,.14,.49,.42,.77,.24,0-.11,0-.22,0-.34h0Z"/>
  <path class="cls-10" d="M24.56,29.07c.26-.03,.44-.3,.7-.34,.28,.19,.54,.43,.9,.41-.09-.1-.17-.21-.26-.31,.04,0,.13-.03,.17-.04,.17-.04,.34-.08,.51-.11,.04,.16,.09,.33,.14,.49-.08,.08-.16,.17-.25,.25,.18,.24,.34,.5,.51,.74,.37-.1,.6,.25,.76,.53-.33-.02-.7-.02-.96-.26-.16-.14-.31-.29-.48-.43l-.3,.09c-.08-.2-.13-.45-.38-.5,.02,.1,.04,.2,.06,.3-.15,.09-.31,.12-.48,.08,.07-.14,.14-.27,.21-.41-.2-.02-.32,.16-.44,.3-.02-.07-.05-.14-.07-.21-.08,0-.15-.03-.22-.03-.11,.02-.15,.18-.27,.19-.2-.02-.38-.1-.58-.11-.24,.03-.46,.14-.7,.2-.08-.06-.16-.12-.23-.19,.1-.08,.34-.13,.18-.29,.21-.1,.39,.04,.54,.18,0-.06-.01-.13-.02-.19,.14-.03,.29-.04,.41-.12,.08-.12,.11-.27,.15-.4,.13,.07,.25,.15,.38,.2h0Z"/>
  <path class="cls-8" d="M26.47,29.41c.08-.08,.16-.17,.25-.25,.08,.24,.19,.49,.39,.65,.34,.26,.7,.55,1.13,.65,.38,.07,.8,.03,1.13-.19,.29-.26,.42-.63,.71-.88,.28,.14,.59,.2,.85,.36,.28,.18,.41,.49,.58,.76-.18,.03-.36,.07-.54,.11,.07,.11,.14,.23,.21,.35-.05,.07-.1,.14-.14,.22-.09-.14-.18-.29-.26-.43-.2,.05-.38,.12-.55,.23l.06,.27c-.42-.21-.87,0-1.24,.21-.11,.06-.23,.13-.35,.2-.24-.13-.47-.26-.72-.36-.1,.16-.22,.32-.34,.47-.04-.12-.09-.25-.13-.38-.04,0-.13,.02-.17,.02-.02,.18-.01,.35,0,.53-.11-.01-.23-.03-.35-.04,.05-.24,.11-.47,.16-.71-.06,0-.18,.01-.23,.02-.2,.3-.2,.66-.17,1.01-.08-.07-.16-.13-.23-.2,0-.25,.04-.49,.06-.74-.26-.11-.36,.19-.41,.38-.14-.05-.29-.09-.42-.14-.32-.1-.53-.38-.84-.5-.16-.07-.28-.2-.4-.32-.01,.05-.04,.14-.05,.19,.12,.21,.12,.48-.12,.61-.08,0-.23-.03-.31-.04,.26,.26,.63,.31,.97,.4l-.19,.13c-.32-.1-.68-.11-.98-.28,0-.12-.02-.25-.03-.38-.09-.02-.18-.03-.27-.05-.1-.02-.2-.04-.31-.06-.08-.09-.16-.25-.3-.17-.11,.1-.2,.22-.3,.33-.06-.09-.13-.17-.19-.26-.47,.06-.43,.62-.73,.87-.19,.14-.18,.4-.36,.55-.02-.21-.04-.42-.01-.64,.1-.38,.26-.73,.36-1.11,0-.03,.02-.09,.03-.12,.2,0,.4,.04,.59-.01,.17-.08,.1-.31,.16-.46,.03-.26,.25-.4,.46-.52,.08,.06,.16,.12,.23,.19,.23-.07,.46-.17,.7-.2,.2,0,.39,.09,.58,.11,.12,0,.16-.16,.27-.19,.08,0,.15,.02,.22,.03,.02,.07,.05,.14,.07,.21,.12-.14,.23-.31,.44-.3-.07,.14-.14,.27-.21,.41,.17,.05,.33,0,.48-.08-.02-.1-.04-.2-.06-.3,.25,.04,.3,.3,.38,.5l.3-.09c.16,.14,.32,.29,.48,.43,.26,.24,.63,.24,.96,.26-.16-.27-.4-.63-.76-.53-.18-.24-.34-.5-.52-.74h0Z"/>
  <path class="cls-4" d="M30.98,30.62c.18-.04,.36-.07,.54-.11,.06,.12,.1,.25,.15,.37-.5,.5-1.22,.62-1.88,.78-.27,.08-.52-.06-.75-.19,.38-.2,.82-.42,1.24-.21l-.06-.27c.17-.1,.36-.18,.55-.23,.09,.14,.18,.29,.26,.43,.04-.07,.09-.15,.14-.22-.06-.11-.13-.23-.2-.35h0Z"/>
  <path class="cls-14" d="M24.78,35.93c-.07-.08-.12-.17-.19-.24,0,.11,0,.22,0,.34-.29,.18-.54-.1-.77-.24,.1,.1,.2,.2,.29,.31,.23,.03,.5,.04,.66-.17h0Z"/>
  <path class="cls-14" d="M22.44,33.23c-.18-.2-.48-.11-.71-.14-.26,.01-.67-.04-.77,.27,.47,.01,.93,.02,1.4,.04,.02-.04,.06-.13,.08-.17Z"/>
  <path class="cls-14" d="M27.7,32.58c.26,.42,.76,.37,1.19,.36-.18-.17-.39-.3-.54-.49-.09-.08-.12-.24-.25-.26-.26,.03-.51,.07-.78,.06h-.29c-.01,.16-.01,.31-.01,.47,.06,.03,.19,.1,.25,.14,.09-.17,.26-.23,.43-.28h0Z"/>
  <path class="cls-14" d="M20.79,33.08l-.02-.05s-.02,.06-.03,.08l-.05,.06s-.03,.03-.03,.04c-.12,.1-.1,.27-.11,.41,.02,.03,.06,.1,.08,.14,.21,.13,.17-.34,.02-.35,.09-.11,.19-.21,.22-.36l-.08,.03Z"/>
  <path class="cls-14" d="M21.51,33.95c.03,.43,.12,.87,.27,1.28,.29,.5,.52,1.03,.89,1.49,.38,.38,.76,.85,1.33,.88,.42,0,.9,.1,1.27-.15,.49-.23,.77-.84,.58-1.36-.16-.43-.28-.94-.69-1.2-.58-.35-1.45,.23-1.33,.91-.03-.69,1.01-1.16,1.41-.53,.23,.53,.57,1.15,.3,1.73-.43,.65-1.41,.72-2.01,.28-.28-.21-.58-.42-.76-.73-.17-.3-.32-.61-.5-.9-.31-.5-.32-1.11-.55-1.64-.05,0-.15-.02-.2-.03h0Z"/>
  <path class="cls-14" d="M21.08,33.61s.05,.1,.07,.13c.51,.05,1.02,.01,1.53,.01-.02-.02-.06-.07-.08-.09-.5-.02-1.01-.14-1.51-.06h0Z"/>
  <path class="cls-14" d="M28.86,32.11c-.09-.1-.22-.11-.3,0,.1,.34,.48,.51,.63,.83-.07,.14-.23,.3-.12,.46,.04-.31,.3-.47,.57-.57-.14,0-.28-.02-.41-.03-.11-.24-.2-.49-.36-.7h0Z"/>
  <path class="cls-14" d="M20.2,32.99c-.05,.12-.11,.24-.18,.36,.05,.15,.13,.3,.23,.42,.03-.01,.09-.04,.11-.05-.2-.24-.04-.52,.09-.75-.09,.01-.17,.02-.25,.02Z"/>
  <path class="cls-14" d="M30.26,32.92c-.17-.16-.4-.21-.63-.24h0v.16c.2,.08,.42,.07,.63,.08h0Z"/>
  <path class="cls-14" d="M22.95,32.66c-.2-.31-.26-.67-.14-1.02-.09,.02-.17,.04-.26,.06-.19,.34-.45,.69-.39,1.1,.27,0,.54,0,.79-.13Z"/>
  <path class="cls-14" d="M20.03,32.88c-.16,.03-.32,.03-.49,0-.1,.17-.22,.32-.39,.41-.17,.1-.1,.35-.07,.51,.3,.06,.62,.04,.93,.05-.08-.18-.18-.34-.22-.53-.02-.2,.23-.27,.24-.46Z"/>
  <path class="cls-14" d="M24.17,32.54c.02-.11,.05-.22,.07-.33-.18-.17-.44-.16-.66-.22-.06,.3,0,.6,.18,.85,.13-.1,.26-.21,.41-.29h0Z"/>
  <path class="cls-14" d="M30.46,33.58c-.47,.08-.94,.02-1.41,.09-.5-.1-1.01-.11-1.52-.08,0,.05,0,.14,.01,.19,.5-.03,1.01,.02,1.51-.09,.43,.1,.88,.06,1.31,.03,.22-.02,.43,.11,.65,.09,.04-.3-.36-.22-.55-.23Z"/>
  <path class="cls-14" d="M29.38,33.2s-.06,.1-.08,.14c.28,.09,.58,.03,.87,.07,.37,.05,.77,.1,1.12-.08-.12-.08-.23-.19-.37-.22-.51-.03-1.03,.04-1.54,.09h0Z"/>
  <path class="cls-14" d="M29.89,34.25c-.28-.1-.55-.22-.82-.34,.18,.17,.32,.39,.55,.5,.3,.07,.59-.13,.8-.32-.13-.26-.36,.1-.52,.16h0Z"/>
  <path class="cls-14" d="M27.94,33.17c-.11,.03-.36,0-.33,.19,.32,.02,.65,.02,.98,0,.13,0,.19-.06,.18-.2-.27,0-.55-.01-.82,0Z"/>
  <path class="cls-14" d="M31.74,33.1c-.01,.11-.02,.23-.03,.34-.05,.03-.14,.09-.18,.12,0,.1,0,.21-.01,.32,.4,0,.76-.18,1.14-.25,.06-.12,.02-.26,.02-.4-.32-.03-.62-.15-.94-.13h0Z"/>
  <path class="cls-14" d="M24.75,32.28l-.08,.04c-.07,.25-.22,.41-.42,.55,.15,.03,.3,.04,.46,.05,.16-.19,.06-.43,.04-.64Z"/>
  <path class="cls-14" d="M26.71,32.98c-.09-.22-.18-.47-.37-.62-.41,.02-.83,0-1.24,.02-.05,.2-.12,.38-.16,.58,.59,.05,1.18,.03,1.77,.02h0Z"/>
  <path class="cls-14" d="M27.21,33.36c.08-.28,.36-.36,.59-.47-.14-.34-.48-.05-.63,.12-.11-.1-.22-.21-.31-.32,.3,.43,.06,1.1,.54,1.41-.07-.23-.16-.47-.2-.71v-.04Z"/>
  <path class="cls-14" d="M24.26,33.36c.29-.09,.56,.1,.84,.1,.55,.01,1.1,.01,1.64,0,0-.06-.01-.19-.02-.25-.73,0-1.48-.11-2.19,.1-.2,0-.39-.1-.58-.13-.13-.18-.48-.05-.7-.1,.03,.1,.06,.2,.09,.3,.18,0,.36,0,.53,0,.11,.12,.26,0,.38-.02Z"/>
  <path class="cls-14" d="M23.61,33.65c.04,.06,.09,.12,.13,.18,.17,0,.35,0,.52,.02,.82,0,1.64,.02,2.47,0,.01-.03,.04-.08,.06-.1-.84-.06-1.69-.07-2.53-.08-.21,0-.43,0-.65,0h0Z"/>
  <path class="cls-6" d="M27.38,29.51v.06c.4,.41,1.01,.66,1.58,.5,.22-.12,.44-.27,.54-.5,.36-.74,.42-1.61,.18-2.39-.22-.16-.43-.34-.56-.58-.26-.36-.7-.74-1.17-.57-.49,.07-.83,.5-.96,.94-.18,.57-.24,1.22,0,1.78,.05,.28,.1,.63,.39,.76h0Zm.91-1.41c.1,.31-.07,.74-.45,.74-.17-.12-.41-.23-.37-.48-.07-.46,.55-.44,.82-.27Z"/>
  <path class="cls-6" d="M31.5,29.9c.22-.23,.49-.41,.72-.63,.4-.59,.74-1.36,.43-2.07-.1-.47-.65-.63-1.07-.58-.56,.1-1.17,.3-1.47,.82,0,.51,.09,1.03-.01,1.54,.54,.14,1.13,.38,1.4,.91h0Zm.4-2.17c.11-.02,.22-.05,.33-.09,.12,.19,.12,.46,.05,.67-.22,.21-.53,0-.62-.24,.08-.12,.16-.23,.24-.35Z"/>
  <path class="cls-14" d="M31.5,29.9c.22-.23,.49-.41,.72-.63,.4-.59,.74-1.36,.43-2.07-.1-.47-.65-.63-1.07-.58-.56,.1-1.17,.3-1.47,.82,0,.51,.09,1.03-.01,1.54,.54,.14,1.13,.38,1.4,.91h0Zm.4-2.17c.11-.02,.22-.05,.33-.09,.12,.19,.12,.46,.05,.67-.22,.21-.53,0-.62-.24,.08-.12,.16-.23,.24-.35Z"/>
  <path class="cls-14" d="M22.37,33.4l.08-.17c-.18-.2-.48-.11-.71-.14-.2,.01-.49-.02-.65,.11v.17c.43,0,.86,.02,1.29,.04h0Z"/>
  <path class="cls-14" d="M22.81,31.64c-.09,.02-.17,.04-.26,.06-.19,.34-.45,.69-.39,1.1,.27,0,.55,0,.79-.13-.2-.31-.26-.67-.14-1.02Z"/>
  <path class="cls-14" d="M23.02,33.06c.14-.2,.43-.15,.64-.21-.14-.19-.34-.35-.4-.59-.02-.35,.15-.67,.27-1,.09,.02,.18,.03,.27,.05,.01,.12,.02,.25,.03,.38,.3,.17,.66,.18,.98,.28,.45,.15,.93,.1,1.38,0,0-.1-.01-.21-.01-.31,.05-.19,.15-.49,.41-.38-.02,.25-.05,.49-.06,.74,0,.22,.12,.41,.26,.59,0-.13-.01-.26-.02-.39-.04-.34-.03-.71,.17-1.01,.06,0,.18-.01,.23-.02-.05,.24-.11,.48-.16,.71,.11,.01,.23,.03,.35,.04,.47,.05,.94-.07,1.35-.29,.12-.06,.23-.13,.35-.2,.22,.13,.48,.27,.75,.19,.65-.15,1.38-.28,1.88-.78-.04-.1-.08-.2-.12-.3l-.03-.07c-.16-.27-.3-.59-.58-.76-.27-.16-.58-.22-.85-.36-.3,.25-.43,.62-.71,.88-.33,.22-.75,.26-1.13,.19-.43-.1-.79-.39-1.13-.65-.21-.16-.31-.41-.39-.65-.05-.16-.1-.32-.14-.49-.05-.21-.04-.49-.28-.59h-.03c-.54-.26-1.13-.44-1.73-.41-.52,.16-1.1,.28-1.51,.68-.63,.56-.99,1.35-1.27,2.13-.01,.05-.04,.14-.05,.19,0,.03-.02,.09-.03,.12-.1,.38-.26,.73-.36,1.11-.02,.21,0,.43,.01,.64,0,.04,0,.12,0,.16,.13,0,.26,0,.39,0,.27-.46,.44-1,.88-1.34,.1-.1,.2-.22,.3-.33,.14-.08,.23,.08,.3,.17-.39,.43-.26,1.09,.04,1.53-.2,.15-.4,.3-.56,.5,.11,.36,.47,.53,.8,.65-.23-.22-.58-.44-.5-.82h0Z"/>
  <path class="cls-14" d="M26.33,32.35c-.41,.02-.83,0-1.24,.02-.05,.2-.12,.38-.16,.58,.59,.05,1.19,.03,1.78,.02-.09-.22-.18-.47-.38-.62Z"/>
  <path class="cls-14" d="M24.78,35.93c-.07-.08-.12-.17-.19-.24,0,.11,0,.22,0,.34-.29,.18-.54-.1-.77-.24,.1,.1,.2,.2,.29,.31,.23,.03,.5,.04,.66-.17h0Z"/>
  <path class="cls-14" d="M22.67,33.75s-.06-.07-.08-.09c-.5-.02-1.01-.14-1.51-.06,.01,.03,.05,.1,.07,.13,.5,.05,1.02,.01,1.53,.01h0Z"/>
  <path class="cls-14" d="M21.51,33.95c.03,.43,.12,.87,.27,1.28,.29,.5,.52,1.03,.89,1.49,.38,.38,.76,.85,1.33,.88,.42,0,.9,.1,1.27-.15,.49-.23,.77-.84,.58-1.36-.16-.43-.28-.94-.69-1.2-.58-.35-1.45,.23-1.33,.91-.03-.69,1.01-1.16,1.41-.53,.23,.53,.57,1.15,.3,1.73-.43,.65-1.41,.72-2.01,.28-.28-.21-.58-.42-.76-.73-.17-.3-.32-.61-.5-.9-.31-.5-.32-1.11-.55-1.64-.05,0-.15-.02-.2-.03h0Z"/>
  <path class="cls-14" d="M27.94,33.17c-.11,.03-.36,0-.33,.19,.32,.02,.65,.02,.98,0,.13,0,.19-.06,.18-.2-.27,0-.55-.01-.82,0Z"/>
  <path class="cls-14" d="M28.35,32.44c-.09-.08-.12-.24-.25-.26-.26,.03-.51,.07-.78,.06h-.29c-.01,.16-.01,.31-.01,.47,.06,.03,.19,.1,.25,.14,.09-.17,.26-.23,.43-.28,.26,.42,.76,.37,1.19,.36-.18-.17-.4-.3-.54-.49Z"/>
  <path class="cls-14" d="M27.38,29.51v.06c.4,.41,1.01,.66,1.58,.5,.22-.12,.44-.27,.54-.5,.36-.74,.42-1.61,.18-2.39-.22-.16-.43-.34-.56-.58-.26-.36-.7-.74-1.17-.57-.49,.07-.83,.5-.96,.94-.18,.57-.24,1.22,0,1.78,.05,.28,.1,.63,.39,.76h0Zm.91-1.41c.1,.31-.07,.74-.45,.74-.17-.12-.41-.23-.37-.48-.07-.46,.55-.44,.82-.27Z"/>
  <path class="cls-14" d="M29.38,33.2s-.06,.1-.08,.14c.28,.09,.58,.03,.87,.07,.37,.05,.77,.1,1.12-.08-.12-.08-.23-.19-.37-.22-.51-.03-1.03,.04-1.54,.09h0Z"/>
  <path class="cls-14" d="M30.46,33.58c-.47,.08-.94,.02-1.41,.09-.5-.1-1.01-.11-1.52-.08,0,.05,0,.14,.01,.19,.5-.03,1.01,.02,1.51-.09,.43,.1,.88,.06,1.31,.03,.22-.02,.43,.11,.65,.09,.04-.3-.36-.22-.55-.23Z"/>
  <path class="cls-14" d="M29.89,34.25c-.28-.1-.55-.22-.82-.34,.18,.17,.32,.39,.55,.5,.3,.07,.59-.13,.8-.32-.13-.26-.36,.1-.52,.16h0Z"/>
  <path class="cls-14" d="M31.74,33.1c-.01,.11-.02,.23-.03,.34-.05,.03-.14,.09-.18,.12,0,.1,0,.21-.01,.32,.4,0,.76-.18,1.14-.25,.06-.12,.02-.26,.02-.4-.32-.03-.62-.15-.94-.13h0Z"/>
  <path class="cls-14" d="M28.86,32.11c-.09-.1-.22-.11-.3,0,.1,.34,.48,.51,.63,.83-.07,.14-.23,.3-.12,.46,.04-.31,.3-.47,.57-.57-.14,0-.28-.02-.41-.03-.11-.24-.2-.49-.36-.7h0Z"/>
  <path class="cls-14" d="M24.26,33.36c.29-.09,.56,.1,.84,.1,.55,.01,1.1,.01,1.64,0,0-.06-.01-.19-.02-.25-.73,0-1.48-.11-2.19,.1-.2,0-.39-.1-.58-.13-.13-.18-.48-.05-.7-.1,.03,.1,.06,.2,.09,.3,.18,0,.36,0,.53,0,.11,.12,.26,0,.38-.02Z"/>
  <path class="cls-14" d="M23.61,33.65c.04,.06,.09,.12,.13,.18,.17,0,.35,0,.52,.02,.82,0,1.64,.02,2.47,0,.01-.03,.04-.08,.06-.1-.84-.06-1.69-.07-2.53-.08-.21,0-.43,0-.65,0h0Z"/>
  <path class="cls-14" d="M23.75,32.84c.13-.1,.27-.21,.41-.29,.02-.11,.05-.22,.07-.33-.18-.17-.44-.16-.66-.22-.06,.3,0,.6,.18,.85h0Z"/>
  <path class="cls-14" d="M24.24,32.87c.15,.03,.3,.04,.46,.05,.16-.18,.06-.43,.04-.64l-.08,.04c-.07,.25-.22,.41-.42,.55Z"/>
  <path class="cls-14" d="M27.21,33.36c.08-.28,.36-.36,.59-.47-.14-.34-.48-.05-.63,.12-.11-.1-.22-.21-.31-.32,.3,.43,.06,1.1,.54,1.41-.07-.23-.16-.47-.2-.71v-.04Z"/>
  <path class="cls-2" d="M20.2,32.99c-.05,.12-.11,.24-.18,.36,.05,.15,.13,.3,.23,.42,.03-.01,.09-.04,.11-.05-.2-.24-.04-.52,.09-.75-.09,.01-.17,.02-.25,.02Z"/>
  <path class="cls-2" d="M20.79,33.08l-.02-.05s-.02,.06-.03,.08l-.05,.06s-.03,.03-.03,.04c-.12,.1-.1,.27-.11,.41,.02,.03,.06,.1,.08,.14,.21,.13,.17-.34,.02-.35,.09-.11,.19-.21,.22-.36l-.08,.03Z"/>
  <path class="cls-18" d="M27.84,28.84c.38,0,.55-.43,.45-.74-.27-.18-.88-.19-.82,.26-.04,.25,.2,.36,.37,.48Z"/>
  <path class="cls-18" d="M32.28,28.32c.07-.21,.07-.48-.05-.67-.11,.03-.22,.06-.33,.09-.08,.11-.16,.23-.24,.34,.09,.24,.4,.46,.62,.24Z"/>
  <path class="cls-18" d="M32.07,32.92c-.49-.09-.99,0-1.48-.01-.22-.15-.43-.32-.7-.34-.09,.04-.17,.07-.26,.1,.22,.02,.46,.08,.63,.24-.21-.01-.43,0-.63-.08-.27,.1-.53,.25-.57,.57-.11-.16,.05-.31,.12-.46-.15-.32-.52-.49-.63-.83,.08-.11,.22-.1,.3,0,.16,.21,.25,.46,.36,.7,.14,0,.28,.02,.41,.03v-.16c-.07,.03-.14,.06-.2,.09-.12-.26-.22-.53-.3-.8,.16,.04,.32,.1,.48,.13,.74-.11,1.54-.26,2.12-.78,.12-.12,.34-.23,.3-.44-.01-.1-.05-.2-.1-.3-.08-.17-.2-.33-.27-.51,.17-.06,.34-.12,.5-.2,.58-.57,.87-1.38,.93-2.18-.06-.42-.18-.89-.5-1.19-.6-.3-1.31-.2-1.91,.01-.28,.11-.48,.33-.71,.51-.19-.04-.3-.26-.42-.4-.24-.4-.56-.78-1-.95-.37-.01-.8-.11-1.11,.12-.16,.1-.34,.2-.46,.37-.26,.48-.4,1.01-.45,1.55-.08-.03-.16-.06-.24-.1-.57-.21-1.16-.35-1.76-.33-.42,.08-.83,.2-1.22,.38-.8,.41-1.3,1.22-1.6,2.05-.18,.36-.31,.74-.38,1.14-.07,.36-.2,.7-.22,1.07,0,.25,.02,.5,.01,.74,0,0-.02,.01-.03,.02-.26,.14-.56,.14-.85,.19-.21,0-.42-.11-.63-.05h0c-.23,.11-.47,.17-.7,.28-.05,.32-.1,.77,.29,.9h.42c.5,0,.99,0,1.48,0h.11c.12,.62,.24,1.26,.57,1.81,.39,.62,.77,1.28,1.35,1.73,.56,.38,1.27,.39,1.91,.28,.24-.03,.41-.22,.63-.31,.13-.08,.33-.1,.38-.27,.44-.71,.1-1.6-.3-2.25-.25-.45-.8-.54-1.27-.52-.28,.04-.45,.28-.67,.42-.24,.15-.48,.46-.3,.75,.16,.3,.35,.7,.75,.68,.25-.03,.59-.09,.7-.35,.05-.32-.33-.47-.58-.53,.01,.16,.03,.31,.04,.47-.13-.09-.26-.18-.4-.27,.08-.42,.55-.41,.87-.54,.33,.51,.67,1.17,.4,1.78-.31,.39-.87,.34-1.3,.24-.56-.09-.94-.59-1.19-1.06-.38-.65-.83-1.35-.75-2.14,.26,0,.53-.02,.79,0,.25,.06,.48,.28,.75,.17,.58-.16,1.19-.06,1.78-.07,.47-.02,.94-.05,1.41-.02,.17,.05,.26,.25,.46,.24,.22,.08,.35-.16,.52-.25,.38-.01,.76-.02,1.13,0,.18,.31,.44,.64,.82,.69,.46,.02,.86-.31,1.1-.67,.33,.08,.68,.18,1,.01,.69-.29,1.45-.29,2.16-.5v-.2c-.56-.35-1.26-.25-1.91-.41h0Zm-3.19,.01c-.42,0-.93,.06-1.19-.36-.17,.05-.34,.11-.43,.28-.06-.03-.19-.1-.25-.14,0-.16,0-.31,.01-.47h.29c.26,.01,.52-.03,.78-.06,.13,.01,.17,.18,.25,.26,.15,.19,.37,.32,.54,.49Zm-.3,.43c-.33,0-.65,0-.98,0-.03-.2,.21-.16,.33-.19,.28-.02,.55,0,.82,0,0,.14-.05,.2-.18,.2Zm1.52-5.91c.3-.53,.91-.73,1.47-.82,.42-.05,.96,.11,1.07,.58,.3,.7-.03,1.48-.43,2.07-.23,.22-.5,.4-.72,.63-.27-.53-.86-.77-1.4-.9,.1-.51,.02-1.03,.01-1.54h0Zm-3.12-.5c.13-.45,.48-.88,.96-.94,.48-.17,.91,.21,1.17,.57,.13,.24,.34,.42,.56,.58,.24,.78,.18,1.65-.18,2.39-.1,.24-.33,.38-.54,.5-.58,.17-1.18-.09-1.59-.5v-.06c-.28-.13-.33-.49-.38-.76-.24-.56-.18-1.21,0-1.78Zm-7.39,6.89c-.17,0-.34-.01-.51-.04-.03-.16-.1-.4,.07-.51,.17-.1,.29-.25,.39-.41,.02,0,.03,0,.05,0,.14,.02,.29,.01,.43-.01-.01,.19-.27,.27-.23,.46,.04,.19,.15,.35,.22,.53-.14,0-.28,0-.42,0Zm.77-.13s-.09,.04-.11,.05c-.1-.13-.17-.27-.23-.42,.07-.11,.12-.24,.18-.36,.08,0,.17,0,.25-.02-.13,.23-.29,.51-.09,.75h0Zm.26,.03s-.06-.1-.08-.14c.01-.14,0-.3,.11-.41,0,0,.02-.03,.03-.04l.05-.06s.02-.06,.03-.08l.02,.05,.07-.03c-.02,.14-.13,.25-.22,.36,.16,0,.2,.48-.01,.35Zm.35-.4c.02-.07,.06-.12,.11-.16,.17-.13,.45-.1,.65-.11,.24,.03,.53-.06,.71,.14l-.08,.17c-.43-.02-.86-.03-1.29-.04-.04,0-.07,0-.11,0h0Zm1.99-.69c-.25,.13-.52,.13-.79,.13-.06-.41,.2-.76,.39-1.1,.09-.02,.17-.04,.26-.06-.12,.35-.05,.71,.14,1.02Zm-.69,2.95c.18,.3,.33,.6,.5,.9,.18,.31,.48,.52,.76,.73,.6,.44,1.59,.38,2.01-.28,.27-.58-.07-1.2-.3-1.73-.4-.63-1.44-.15-1.41,.53,.23,.14,.49,.42,.77,.24,0-.11,0-.22,0-.34,.07,.08,.12,.16,.19,.24-.16,.21-.42,.2-.66,.17-.1-.1-.2-.21-.29-.31-.12-.68,.75-1.26,1.33-.91,.41,.27,.53,.77,.69,1.2,.19,.52-.09,1.13-.58,1.36-.38,.24-.85,.15-1.27,.15-.58-.03-.96-.5-1.33-.88-.37-.45-.6-.98-.89-1.49-.15-.41-.23-.85-.27-1.28,.05,0,.15,.02,.21,.03,.22,.53,.24,1.14,.55,1.64h0Zm-1.12-1.88s-.05-.1-.07-.13c.5-.08,1.01,.04,1.51,.06,.02,.02,.06,.07,.08,.09-.51,0-1.02,.04-1.53-.01h0Zm1.57-.5c.16-.2,.35-.35,.56-.5-.3-.44-.43-1.1-.04-1.53-.08-.09-.16-.25-.3-.17-.11,.1-.2,.22-.3,.33-.44,.34-.61,.88-.88,1.34-.13,0-.26,0-.39,0,0-.04,0-.12,0-.16-.02-.21-.04-.42-.01-.64,.1-.38,.26-.73,.36-1.11,0-.03,.02-.09,.03-.12,.01-.05,.04-.14,.05-.19,.29-.78,.64-1.57,1.27-2.13,.4-.4,.99-.51,1.51-.68,.6-.03,1.19,.15,1.73,.4h.03c.24,.11,.22,.39,.28,.6,.04,.16,.09,.33,.14,.49,.08,.24,.19,.49,.39,.65,.34,.26,.7,.55,1.13,.65,.38,.07,.8,.03,1.13-.19,.29-.26,.42-.63,.71-.88,.28,.14,.59,.2,.85,.36,.28,.18,.41,.49,.58,.76l.03,.07c.04,.1,.08,.2,.12,.3-.5,.5-1.22,.62-1.88,.78-.27,.08-.52-.06-.75-.19-.11,.06-.23,.13-.35,.2-.41,.22-.89,.34-1.35,.29-.11-.01-.23-.03-.35-.04,.05-.24,.11-.47,.16-.71-.06,0-.18,.01-.23,.02-.2,.3-.2,.66-.17,1.01,0,.13,.02,.26,.02,.39-.14-.17-.25-.36-.26-.59,0-.25,.04-.49,.06-.74-.26-.11-.36,.19-.41,.38,0,.1,0,.21,.01,.31-.45,.1-.93,.16-1.38,0-.32-.1-.68-.11-.98-.28,0-.12-.02-.25-.03-.38-.09-.02-.18-.03-.27-.05-.12,.32-.29,.64-.27,1,.06,.23,.25,.4,.4,.59-.21,.06-.5,.01-.64,.21-.09,.38,.26,.6,.49,.83-.32-.13-.68-.3-.79-.66h0Zm4-.27c-.59,0-1.19,.03-1.78-.02,.04-.2,.1-.39,.16-.58,.41-.01,.83,0,1.24-.02,.2,.15,.29,.4,.38,.62Zm-2-.06c-.16-.01-.31-.02-.46-.05,.2-.14,.36-.3,.42-.55l.08-.04c.01,.21,.11,.46-.04,.64Zm-.47-.71c-.03,.11-.05,.22-.07,.33-.15,.08-.28,.19-.41,.29-.17-.25-.24-.55-.18-.85,.22,.07,.49,.06,.66,.22h0Zm-.89,1.17c-.03-.1-.06-.2-.09-.3,.22,.05,.57-.08,.7,.1,.2,.03,.38,.12,.58,.13,.71-.21,1.46-.1,2.19-.1,0,.06,.01,.19,.02,.25-.55,.02-1.1,.02-1.64,0-.29,0-.56-.19-.84-.1-.12,0-.27,.14-.38,.03-.19,0-.36-.01-.54-.02h0Zm3.38,.46c-.82,.03-1.64,.01-2.47,0-.17,0-.35-.01-.52-.02-.04-.06-.09-.12-.13-.18,.21,0,.43,0,.65,0,.84,0,1.69,.02,2.53,.08-.02,.03-.05,.08-.06,.1h0Zm.12-1.15c.1,.12,.2,.22,.31,.32,.15-.18,.49-.46,.63-.12-.23,.11-.51,.19-.59,.47v.03c.03,.24,.12,.48,.19,.71-.49-.31-.25-.97-.54-1.41h0Zm2.77,1.71c-.23-.11-.37-.33-.55-.5,.27,.12,.54,.25,.82,.34,.16-.07,.39-.42,.52-.16-.21,.19-.5,.39-.8,.32h0Zm1.39-.59c-.22,.03-.42-.11-.65-.09-.44,.03-.88,.07-1.31-.03-.5,.1-1,.06-1.51,.09,0-.05,0-.14-.01-.19,.51-.04,1.02-.02,1.52,.08,.47-.06,.94,0,1.41-.09,.19,.01,.6-.07,.55,.23h0Zm-.84-.4c-.29-.04-.59,.01-.87-.07,.02-.03,.06-.1,.08-.14,.51-.04,1.02-.11,1.54-.09,.14,.03,.25,.14,.37,.22-.35,.17-.75,.13-1.12,.08h0Zm2.48,.21c-.39,.07-.75,.24-1.14,.25,0-.1,.01-.21,.01-.32,.04-.03,.13-.09,.18-.12,0-.11,.02-.23,.03-.34,.32-.01,.62,.1,.93,.14,0,.12,.04,.27-.02,.39h0Z"/>
  <path class="cls-13" d="M24.51,30.69c.12,.12,.24,.25,.4,.32,.3,.12,.52,.4,.84,.5-.03,.05-.06,.1-.09,.15-.43-.14-.9-.03-1.33-.17,.24-.13,.24-.4,.12-.61,0-.05,.04-.14,.05-.19h0Z"/>
  <path class="cls-19" d="M21.69,31.99c.3-.25,.26-.81,.73-.87,.07,.09,.13,.17,.19,.26-.44,.34-.61,.88-.88,1.34-.13,0-.26,0-.39,0,0-.04,0-.12,0-.16,.18-.15,.17-.41,.36-.55Z"/>
  <path class="cls-12" d="M27.97,31.3c.25,.1,.49,.23,.72,.36-.41,.22-.89,.34-1.35,.29-.02-.18-.03-.35,0-.53,.04,0,.13-.01,.17-.02,.04,.12,.09,.25,.13,.38,.12-.15,.23-.31,.34-.47h0Z"/>
  <path class="cls-17" d="M24.03,31.45c.08,0,.23,.03,.31,.04,.43,.14,.9,.03,1.33,.17,.03-.05,.06-.1,.09-.15,.14,.05,.28,.1,.42,.14,0,.1,0,.21,.01,.31-.45,.1-.93,.16-1.38,0l.19-.13c-.34-.09-.71-.14-.97-.4Z"/>
  <path class="cls-20" d="M19.55,32.89c.16,.02,.32,.02,.49,0-.01,.19-.27,.27-.23,.46,.04,.19,.15,.35,.22,.53-.31-.01-.62,0-.93-.05-.03-.16-.1-.4,.07-.51,.17-.1,.29-.25,.39-.41h0Z"/>
  <path class="cls-21" d="M31.74,33.1c.32-.01,.62,.1,.93,.14,0,.13,.04,.27-.02,.4-.39,.07-.75,.24-1.14,.25,0-.1,.01-.21,.01-.32,.04-.03,.13-.09,.18-.12,.01-.12,.03-.23,.04-.35h0Z"/>
  <path class="cls-11" d="M23.26,33.07c.22,.05,.57-.08,.7,.1l-.15-.02c.02,.08,.05,.16,.08,.23-.18,0-.36,0-.53,0-.03-.1-.06-.21-.09-.31m-2.19,.53c.5-.08,1.01,.04,1.51,.06,.02,.02,.06,.07,.08,.09-.51,0-1.02,.04-1.53-.01-.02-.03-.05-.1-.07-.13h0Z"/>
  <path class="cls-16" d="M20.97,33.35c.1-.31,.5-.26,.77-.27,.24,.03,.53-.06,.71,.14l-.08,.17c-.47-.02-.94-.03-1.41-.04m3.3,.3c.84,0,1.69,.02,2.53,.08-.01,.03-.05,.08-.06,.1-.82,.03-1.64,.01-2.47,0v-.2Z"/>
  <path class="cls-3" d="M23.81,33.16l.15,.02c.2,.03,.38,.12,.58,.13,.71-.21,1.46-.1,2.19-.1,0,.06,.01,.19,.02,.25-.55,.02-1.1,.02-1.64,0-.29,0-.56-.19-.84-.1-.12,0-.27,.14-.38,.03-.03-.09-.06-.16-.08-.24m-.2,.5c.21,0,.43,0,.65,0v.2c-.17,0-.35-.01-.52-.02-.04-.06-.09-.11-.13-.18h0Z"/>
  <path class="cls-1" d="M27.61,33.36c-.03-.2,.21-.16,.33-.19,.28-.02,.55,0,.82,0,.01,.14-.04,.2-.18,.2-.33,0-.66,0-.98,0m1.77-.16c.51-.04,1.02-.11,1.54-.09,.14,.03,.25,.14,.37,.22-.35,.17-.74,.13-1.12,.08-.29-.04-.59,.01-.87-.07,.02-.04,.06-.11,.08-.14m-1.85,.4c.51-.04,1.02-.02,1.52,.08,.47-.06,.94,0,1.41-.09,.2,.01,.6-.07,.55,.23-.22,.03-.42-.11-.65-.09-.44,.03-.88,.07-1.31-.03-.5,.1-1,.06-1.51,.09,0-.05,0-.14-.01-.19h0Z"/>
  <path class="cls-5" d="M27.2,33.39s0-.02,0-.03v.03Z"/>
</svg>