<?xml version="1.0" encoding="UTF-8"?>
<svg id="Layer_1" data-name="Layer 1" xmlns="http://www.w3.org/2000/svg" viewBox="0 0 63 66.52">
  <defs>
    <style>
      .cls-1 {
        fill: #fff;
      }

      .cls-2 {
        fill: #265787;
      }

      .cls-3 {
        fill: #ea7600;
      }
    </style>
  </defs>
  <path class="cls-1" d="M28.36,34.65c.09-1.62,.88-3.05,2.08-4.07,1.18-1,2.75-1.6,4.49-1.6s3.3,.61,4.48,1.6c1.2,1.01,1.99,2.45,2.08,4.07,.09,1.66-.58,3.22-1.75,4.37-1.2,1.17-2.9,1.9-4.81,1.9s-3.62-.73-4.81-1.9c-1.18-1.15-1.84-2.69-1.75-4.36h0Z"/>
  <path class="cls-2" d="M31.96,34.45c.05-.83,.45-1.57,1.07-2.09,.6-.51,1.42-.82,2.31-.82s1.7,.31,2.3,.82c.62,.52,1.02,1.26,1.07,2.09,.05,.86-.3,1.65-.9,2.24-.62,.6-1.49,.98-2.47,.98s-1.86-.38-2.47-.98c-.6-.59-.95-1.38-.9-2.24h0Z"/>
  <path class="cls-3" d="M26.67,36.21c0,.33,.11,.96,.27,1.45,.33,1.05,.89,2.02,1.66,2.87,.79,.88,1.77,1.58,2.9,2.09,1.19,.52,2.47,.79,3.81,.79,1.34,0,2.62-.28,3.81-.81,1.13-.51,2.11-1.21,2.9-2.09,.78-.86,1.33-1.83,1.66-2.88,.17-.53,.27-1.07,.31-1.6,.04-.53,.02-1.06-.05-1.6-.15-1.04-.51-2.01-1.06-2.89-.5-.82-1.16-1.53-1.93-2.13h0s-7.8-6-7.8-6c0,0-.01-.01-.02-.02-.51-.39-1.38-.39-1.94,0-.57,.4-.63,1.06-.13,1.47h0s3.26,2.65,3.26,2.65h-9.92s-.01,.01-.01,.01c-.82,0-1.61,.54-1.76,1.22-.16,.69,.4,1.27,1.25,1.27h0s5.03,0,5.03,0l-8.99,6.88s-.02,.02-.03,.03c-.85,.65-1.12,1.73-.59,2.41,.54,.69,1.69,.7,2.55,0l4.89-4.01s-.07,.54-.07,.86l.02,.02Zm12.61,1.81c-1.01,1.03-2.42,1.61-3.95,1.61-1.53,0-2.95-.57-3.95-1.6-.49-.5-.86-1.08-1.08-1.69-.22-.6-.3-1.24-.25-1.89,.05-.63,.24-1.23,.54-1.78,.29-.53,.7-1.02,1.2-1.43,.98-.8,2.23-1.23,3.54-1.23,1.31,0,2.56,.43,3.54,1.23,.5,.41,.9,.89,1.2,1.42,.3,.54,.49,1.14,.54,1.78,.06,.64-.03,1.28-.25,1.89-.22,.62-.59,1.19-1.08,1.69h0Z"/>
</svg>