<?xml version="1.0" encoding="UTF-8"?>
<svg id="Layer_1" data-name="Layer 1" xmlns="http://www.w3.org/2000/svg" viewBox="0 0 63 66.52">
  <defs>
    <style>
      .cls-1 {
        fill: #fff;
      }

      .cls-2 {
        fill: #ffda3e;
      }

      .cls-3 {
        fill: #d6ba32;
      }
    </style>
  </defs>
  <g id="g8487">
    <path id="path3770" class="cls-3" d="M20.47,20.82c2.47-.1,4.94,.03,7.4-.01,2.72-.09,5.44-.01,8.17,0,2.16,0,4.32,0,6.48,0-.68,7.48-1.37,14.96-2,22.44-2.9,.82-5.79,1.63-8.69,2.45-.37,.15-.75,0-1.11-.09-2.75-.79-5.51-1.57-8.26-2.33-.72-7.48-1.39-14.97-2-22.46m11.08,1.95c-.1,3.69-.01,7.38-.04,11.07,.03,3.37-.05,6.75,.04,10.12,2.43-.57,4.84-1.27,7.24-1.97,.6-6.4,1.19-12.81,1.7-19.22-2.98-.03-5.95,0-8.93,0"/>
    <path id="path3798" class="cls-2" d="M31.55,22.77c2.98,0,5.95-.03,8.93,0-.5,6.41-1.09,12.82-1.7,19.22-2.4,.69-4.8,1.4-7.24,1.97-.09-3.37-.01-6.75-.04-10.12,.03-3.69-.06-7.38,.04-11.07"/>
    <path class="cls-1" d="M28.49,25.6c.69,.01,1.39,.02,2.08,.04-.02,4.88,0,9.77,0,14.66-2.12-.51-4.2-1.18-6.32-1.7-.1-.85-.11-1.71-.07-2.57,1.45,.31,2.86,.76,4.29,1.15,.03-3.86-.04-7.72,.04-11.58Zm10.66,2.62c.1-.87,.19-1.73,.25-2.6-2.34,0-4.68-.02-7.02,.02,0,3.18,.01,6.35,0,9.53,1.45-.23,2.9-.5,4.35-.77-.02,.74-.05,1.48-.08,2.22-1.41,.37-2.82,.76-4.24,1.11-.02,.85-.02,1.71-.02,2.56,1.79-.4,3.55-.9,5.32-1.35,.22-.1,.65-.09,.63-.44,.22-2.28,.35-4.58,.56-6.87-1.47,.12-2.93,.37-4.4,.47-.01-1.3-.01-2.59,0-3.89,1.55,0,3.09,0,4.64,0Z"/>
  </g>
</svg>