<?xml version="1.0" encoding="UTF-8"?>
<svg id="Layer_1" data-name="Layer 1" xmlns="http://www.w3.org/2000/svg" xmlns:xlink="http://www.w3.org/1999/xlink" viewBox="0 0 63 66.52">
  <defs>
    <style>
      .cls-1 {
        fill: #fff;
      }

      .cls-2 {
        fill: url(#radial-gradient);
      }

      .cls-3 {
        fill: #777bb3;
      }
    </style>
    <radialGradient id="radial-gradient" cx="-852.04" cy="776.8" fx="-852.04" fy="776.8" r=".04" gradientTransform="translate(386701.39 352556.59) scale(453.82 -453.82)" gradientUnits="userSpaceOnUse">
      <stop offset="0" stop-color="#aeb2d5"/>
      <stop offset=".3" stop-color="#aeb2d5"/>
      <stop offset=".75" stop-color="#484c89"/>
      <stop offset="1" stop-color="#484c89"/>
    </radialGradient>
  </defs>
  <g id="g3438">
    <path id="path3462" class="cls-2" d="M16.5,33.26c0,4.36,6.72,7.89,15,7.89h0c8.28,0,15-3.53,15-7.89h0c0-4.36-6.72-7.89-15-7.89h0c-8.28,0-15,3.53-15,7.89"/>
    <path id="path3474" class="cls-3" d="M31.5,40.57c7.96,0,14.41-3.27,14.41-7.3s-6.45-7.3-14.41-7.3-14.41,3.27-14.41,7.3,6.45,7.3,14.41,7.3"/>
    <g id="g3478">
      <g id="g3484">
        <path id="path3486" d="M24.65,34.17c.65,0,1.14-.12,1.45-.36,.31-.24,.52-.64,.63-1.21,.1-.53,.06-.9-.12-1.1-.18-.2-.58-.31-1.19-.31h-1.05l-.58,2.98h.85Zm-3.42,3.68s-.09-.02-.13-.06c-.03-.04-.04-.09-.03-.13l1.54-7.91c.01-.08,.08-.13,.16-.13h3.31c1.04,0,1.82,.28,2.3,.84,.49,.56,.64,1.34,.45,2.33-.08,.4-.21,.77-.4,1.11-.19,.33-.43,.64-.73,.92-.36,.34-.77,.58-1.21,.72-.43,.14-.99,.21-1.66,.21h-1.34l-.38,1.97c-.01,.08-.08,.13-.16,.13h-1.72Z"/>
      </g>
      <g id="g3488">
        <path id="path3490" class="cls-1" d="M24.51,31.35h.91c.73,0,.98,.16,1.07,.25,.14,.16,.17,.49,.08,.96-.1,.53-.29,.9-.57,1.11-.28,.22-.74,.32-1.35,.32h-.65l.52-2.66Zm1.56-1.9h-3.31c-.16,0-.29,.11-.32,.26l-1.54,7.91c-.02,.1,0,.19,.07,.27,.06,.08,.15,.12,.25,.12h1.72c.16,0,.29-.11,.32-.26l.36-1.84h1.21c.68,0,1.26-.07,1.71-.22,.46-.15,.89-.41,1.27-.76,.31-.29,.57-.61,.76-.96,.19-.35,.33-.74,.42-1.16,.2-1.04,.04-1.87-.49-2.47-.52-.59-1.34-.9-2.43-.9m-2.48,4.88h1.05c.69,0,1.21-.13,1.55-.39,.34-.26,.57-.7,.69-1.31,.11-.59,.06-1-.16-1.24-.22-.24-.65-.36-1.31-.36h-1.18l-.64,3.31m2.48-4.56c1,0,1.72,.26,2.18,.78,.46,.52,.59,1.25,.41,2.19-.08,.39-.2,.74-.38,1.06-.18,.32-.41,.61-.7,.88-.34,.32-.73,.55-1.15,.69-.42,.14-.96,.21-1.61,.21h-1.48l-.41,2.1h-1.72l1.54-7.91h3.31"/>
      </g>
      <g id="g3492">
        <path id="path3494" d="M32.78,35.74s-.09-.02-.13-.06c-.03-.04-.04-.09-.03-.13l.68-3.5c.06-.33,.05-.57-.04-.67-.06-.06-.23-.17-.74-.17h-1.23l-.85,4.4c-.01,.08-.08,.13-.16,.13h-1.71s-.09-.02-.13-.06c-.03-.04-.04-.09-.03-.13l1.54-7.91c.01-.08,.08-.13,.16-.13h1.71s.09,.02,.13,.06c.03,.04,.04,.09,.03,.13l-.37,1.91h1.32c1.01,0,1.69,.18,2.09,.54,.41,.37,.53,.97,.38,1.78l-.72,3.68c-.01,.08-.08,.13-.16,.13h-1.74Z"/>
      </g>
      <g id="g3496">
        <path id="path3498" class="cls-1" d="M31.81,27.35h-1.71c-.16,0-.29,.11-.32,.26l-1.54,7.91c-.02,.1,0,.19,.07,.27s.15,.12,.25,.12h1.71c.16,0,.29-.11,.32-.26l.83-4.27h1.1c.51,0,.61,.11,.62,.11,.03,.03,.07,.19,0,.53l-.68,3.5c-.02,.1,0,.19,.07,.27s.15,.12,.25,.12h1.74c.16,0,.29-.11,.32-.26l.72-3.68c.17-.86,.02-1.51-.43-1.93-.43-.4-1.15-.59-2.2-.59h-1.13l.33-1.71c.02-.1,0-.19-.07-.27-.06-.08-.15-.12-.25-.12m0,.33l-.41,2.1h1.52c.96,0,1.62,.17,1.98,.5,.36,.33,.47,.88,.33,1.62l-.72,3.68h-1.74l.68-3.5c.08-.4,.05-.67-.09-.81-.13-.14-.42-.22-.86-.22h-1.37l-.88,4.53h-1.71l1.54-7.91h1.71"/>
      </g>
      <g id="g3500">
        <path id="path3502" d="M38.09,34.17c.65,0,1.14-.12,1.45-.36,.31-.24,.52-.64,.63-1.21,.1-.53,.06-.9-.12-1.1-.18-.2-.58-.31-1.19-.31h-1.05l-.58,2.98h.85Zm-3.42,3.68s-.09-.02-.13-.06c-.03-.04-.04-.09-.03-.13l1.54-7.91c.01-.08,.08-.13,.16-.13h3.31c1.04,0,1.82,.28,2.3,.84,.49,.56,.64,1.34,.45,2.33-.08,.4-.21,.77-.4,1.11-.19,.33-.43,.64-.73,.92-.36,.34-.77,.58-1.21,.72-.43,.14-.99,.21-1.66,.21h-1.34l-.38,1.97c-.01,.08-.08,.13-.16,.13h-1.72Z"/>
      </g>
      <g id="g3504">
        <path id="path3506" class="cls-1" d="M37.96,31.35h.91c.73,0,.98,.16,1.07,.25,.14,.16,.17,.49,.08,.96-.1,.53-.29,.9-.57,1.11-.28,.22-.74,.32-1.35,.32h-.65l.52-2.66Zm1.56-1.9h-3.31c-.16,0-.29,.11-.32,.26l-1.54,7.91c-.02,.1,0,.19,.07,.27,.06,.08,.15,.12,.25,.12h1.72c.16,0,.29-.11,.32-.26l.36-1.84h1.21c.68,0,1.26-.07,1.71-.22,.46-.15,.89-.41,1.27-.76,.31-.29,.57-.61,.76-.96,.19-.35,.33-.74,.42-1.16,.2-1.04,.04-1.87-.49-2.47-.52-.59-1.34-.9-2.43-.9m-2.48,4.88h1.05c.69,0,1.21-.13,1.55-.39,.34-.26,.57-.7,.69-1.31,.11-.59,.06-1-.16-1.24-.22-.24-.65-.36-1.31-.36h-1.18l-.64,3.31m2.48-4.56c1,0,1.72,.26,2.18,.78,.46,.52,.59,1.25,.41,2.19-.08,.39-.2,.74-.38,1.06-.18,.32-.41,.61-.7,.88-.34,.32-.73,.55-1.15,.69-.42,.14-.96,.21-1.61,.21h-1.48l-.41,2.1h-1.72l1.54-7.91h3.31"/>
      </g>
    </g>
  </g>
</svg>