<?xml version="1.0" encoding="UTF-8"?>
<svg id="Layer_1" data-name="Layer 1" xmlns="http://www.w3.org/2000/svg" viewBox="0 0 63 66.52">
  <defs>
    <style>
      .cls-1 {
        fill: #306998;
      }

      .cls-2 {
        fill: #ffd43b;
      }
    </style>
  </defs>
  <path id="path1948" class="cls-1" d="M31.35,20.76c-1.02,0-1.99,.09-2.85,.24-2.52,.45-2.98,1.38-2.98,3.1v2.27h5.96v.76h-8.2c-1.73,0-3.25,1.04-3.73,3.02-.55,2.27-.57,3.69,0,6.06,.42,1.77,1.44,3.02,3.17,3.02h2.05v-2.72c0-1.97,1.7-3.71,3.73-3.71h5.96c1.66,0,2.98-1.37,2.98-3.03v-5.68c0-1.62-1.36-2.83-2.98-3.1-1.02-.17-2.09-.25-3.11-.24Zm-3.23,1.83c.62,0,1.12,.51,1.12,1.14,0,.63-.5,1.13-1.12,1.13-.62,0-1.12-.51-1.12-1.13s.5-1.14,1.12-1.14Z"/>
  <path id="path1950" class="cls-2" d="M38.19,27.14v2.65c0,2.05-1.74,3.78-3.73,3.78h-5.96c-1.63,0-2.98,1.4-2.98,3.03v5.68c0,1.62,1.41,2.57,2.98,3.03,1.89,.56,3.7,.66,5.96,0,1.5-.43,2.98-1.31,2.98-3.03v-2.27h-5.96v-.76h8.94c1.73,0,2.38-1.21,2.98-3.02,.62-1.87,.6-3.66,0-6.06-.43-1.73-1.25-3.02-2.98-3.02h-2.24Zm-3.35,14.38c.62,0,1.12,.51,1.12,1.13s-.5,1.14-1.12,1.14-1.12-.51-1.12-1.14,.5-1.13,1.12-1.13Z"/>
</svg>