<?xml version="1.0" encoding="UTF-8"?>
<svg id="Layer_1" data-name="Layer 1" xmlns="http://www.w3.org/2000/svg" xmlns:xlink="http://www.w3.org/1999/xlink" viewBox="0 0 63 66.52">
  <defs>
    <style>
      .cls-1 {
        fill: #1f9cf0;
      }

      .cls-2 {
        fill: #007acc;
      }

      .cls-3 {
        fill: #0065a9;
      }

      .cls-4 {
        mask: url(#mask);
      }

      .cls-5 {
        fill: url(#linear-gradient);
      }

      .cls-6 {
        opacity: .25;
      }
    </style>
    <mask id="mask" x="19.02" y="20.83" width="24.98" height="24.86" maskUnits="userSpaceOnUse"/>
    <linearGradient id="linear-gradient" x1="31.49" y1="47.5" x2="31.49" y2="22.64" gradientTransform="translate(0 68.33) scale(1 -1)" gradientUnits="userSpaceOnUse">
      <stop offset="0" stop-color="#fff"/>
      <stop offset="1" stop-color="#fff" stop-opacity="0"/>
    </linearGradient>
  </defs>
  <g class="cls-4">
    <g>
      <path class="cls-3" d="M43.12,23.47l-5.15-2.48c-.6-.29-1.31-.17-1.78,.3l-16.85,15.37c-.45,.41-.45,1.13,0,1.54l1.38,1.25c.37,.34,.93,.36,1.33,.06l20.29-15.4c.68-.52,1.66-.03,1.66,.82v-.06c0-.6-.34-1.15-.88-1.41Z"/>
      <path class="cls-2" d="M43.12,43.06l-5.15,2.48c-.6,.29-1.31,.17-1.78-.3l-16.85-15.37c-.45-.41-.45-1.13,0-1.54l1.38-1.25c.37-.34,.93-.36,1.33-.06l20.29,15.4c.68,.52,1.66,.03,1.66-.82v.06c0,.6-.34,1.15-.88,1.41Z"/>
      <path class="cls-1" d="M37.97,45.54c-.6,.29-1.31,.17-1.78-.3,.58,.58,1.56,.17,1.56-.65V21.94c0-.81-.99-1.22-1.56-.65,.47-.47,1.18-.59,1.78-.3l5.15,2.48c.54,.26,.88,.81,.88,1.41v16.78c0,.6-.34,1.15-.88,1.41l-5.15,2.48Z"/>
      <g class="cls-6">
        <path class="cls-5" d="M36.72,45.58c.39,.15,.84,.14,1.24-.05l5.14-2.48c.54-.26,.88-.81,.88-1.41V24.87c0-.6-.34-1.15-.88-1.41l-5.14-2.48c-.52-.25-1.13-.19-1.59,.14-.07,.05-.13,.1-.19,.16l-9.85,8.98-4.29-3.26c-.4-.3-.96-.28-1.33,.06l-1.38,1.25c-.45,.41-.45,1.13,0,1.54l3.72,3.39-3.72,3.39c-.45,.41-.45,1.13,0,1.54l1.38,1.25c.37,.34,.93,.36,1.33,.06l4.29-3.26,9.85,8.98c.16,.16,.34,.27,.54,.35Zm1.03-17.99l-7.47,5.67,7.47,5.67v-11.34Z"/>
      </g>
    </g>
  </g>
</svg>