<?xml version="1.0" encoding="UTF-8"?>
<svg id="Layer_1" data-name="Layer 1" xmlns="http://www.w3.org/2000/svg" viewBox="0 0 63 66.52">
  <defs>
    <style>
      .cls-1 {
        fill: #231f20;
        fill-rule: evenodd;
      }
    </style>
  </defs>
  <path class="cls-1" d="M0,52.78V13.8c8.38,8.46,15.2,14.82,20.46,19.09L0,52.78Zm59.97,2.86H2.94l20.79-20.21c3.79,2.77,6.51,4.1,8.15,3.99v-.03c1.28-.15,3.44-1.38,6.47-3.68l21.62,19.93Zm3.03-41.94V52.85l-21.41-19.74c.2-.16,.39-.33,.6-.5,4.92-4.17,11.86-10.48,20.81-18.92ZM2.88,10.89H60.02c-8.72,8.21-15.54,14.41-20.48,18.6-4.69,3.97-7.13,5.94-7.33,5.89l-.3-.07-.29,.02c-2.85,.19-12.43-7.96-28.73-24.44Z"/>
</svg>